<?xml version="1.0" encoding="UTF-8" standalone="no"?><!-- Generator: Gravit.io --><svg xmlns="http://www.w3.org/2000/svg" xmlns:xlink="http://www.w3.org/1999/xlink" style="isolation:isolate" viewBox="-1 -1 1001 1562" width="1001pt" height="1562pt"><g><path d=" M 307.9 1378.4 L 305.9 1381.2 L 301.8 1376.7 L 304.5 1375.3 L 304.8 1372.4 L 309 1367.3 L 309.1 1369.4 L 308 1370.6 L 311.9 1373.6 L 309 1376.2 L 307.9 1378.4 L 307.9 1378.4 Z  M 542.3 1182.5 L 539.1 1183 L 541.8 1178.3 L 546.8 1178.6 L 548.4 1181.7 L 542.3 1182.5 L 542.3 1182.5 Z  M 609.1 1084.9 L 609.6 1093.1 L 608 1091.3 L 607 1086.4 L 609.1 1084.9 L 609.1 1084.9 Z  M 646.9 1001.6 L 645 1000 L 643.1 997.1 L 645.1 993.4 L 646.9 1001.6 L 646.9 1001.6 Z  M 657.7 956.9 L 655 964.1 L 654.2 961.1 L 653.9 954 L 657.8 949.3 L 657.7 956.9 L 657.7 956.9 Z  M 688.1 841.5 L 686.6 846.1 L 684.2 845.8 L 678.1 846.1 L 674.2 848.8 L 677.6 839.6 L 687.2 838.7 L 688.1 841.5 L 688.1 841.5 Z  M 945.4 790.7 L 943.1 797.2 L 943.8 787.8 L 947.7 776.9 L 951.9 779.7 L 951.6 783.4 L 945.4 790.7 L 945.4 790.7 Z  M 652.8 784.3 L 651.5 784.5 L 651.5 779.4 L 654 774.3 L 657.8 776.7 L 655.9 780.7 L 652.7 783.1 L 652.8 784.3 L 652.8 784.3 Z  M 657.5 737.2 L 655.4 733.1 L 655.7 721.7 L 657.5 715.8 L 659.3 714.8 L 662.2 721.2 L 660.9 731.5 L 657.5 737.2 L 657.5 737.2 Z  M 674.2 665.9 L 669.9 670.5 L 665.9 664.5 L 665.3 660.6 L 669.6 657.4 L 674.2 665.9 L 674.2 665.9 Z  M 997.1 632.7 L 994.3 634.2 L 986 630.4 L 985.8 627 L 990.6 622.8 L 996.7 623.8 L 999 628.6 L 997.1 632.7 L 997.1 632.7 Z  M 623.4 585.3 L 621.7 593.5 L 618 589.9 L 615.6 586.4 L 614.5 581.2 L 618.1 580.7 L 622.4 583.6 L 623.4 585.3 L 623.4 585.3 Z  M 601 576.5 L 600.1 574.6 L 598.6 566.7 L 603.2 567 L 605.1 570.7 L 604.8 573.8 L 601 576.5 L 601 576.5 Z  M 603.6 563.7 L 600.4 566.3 L 600.1 561.8 L 603.6 554.9 L 606.4 551.8 L 607.4 556.5 L 603.6 563.7 L 603.6 563.7 Z  M 691.7 448.7 L 683 458.4 L 682 455.1 L 684.2 449.4 L 686.7 450.4 L 689.1 447.1 L 688.7 443 L 685.9 440.5 L 686.9 434.9 L 687.5 427.9 L 690.4 422.4 L 693.2 422.1 L 690.9 427.7 L 690 438.4 L 691.7 448.7 L 691.7 448.7 Z  M 675 386.8 L 668.1 387.9 L 664.6 383 L 673.5 383.7 L 679.7 384.7 L 675 386.8 L 675 386.8 Z " fill="rgb(124,50,56)" vector-effect="non-scaling-stroke" stroke-width="2" stroke="rgb(255,255,255)" stroke-linejoin="round" stroke-linecap="round" stroke-miterlimit="4"/><path d=" M 817 704.2 L 817.1 718.4 L 813.2 718.4 L 813.2 710.2 L 810 711.2 L 807.8 712.9 L 805.1 718.4 L 805.6 682.2 L 803.6 667.2 L 797.3 661 L 804.5 654.6 L 811.1 665.3 L 820.6 693.9 L 818 698.3 L 817 704.2 L 817 704.2 Z  M 661.4 592.2 L 666.7 600 L 665.5 605.9 L 663.9 608.6 L 663.7 612.2 L 661.3 617.6 L 657.4 617.2 L 656.4 612.2 L 655.6 599.8 L 654.8 597.2 L 650.3 597.8 L 645.4 595.5 L 640.2 588.4 L 638.4 586.7 L 638.5 583.2 L 642.3 580.6 L 650.8 584 L 661.4 592.2 L 661.4 592.2 Z  M 825.3 575.3 L 828.8 587.2 L 826.4 596.2 L 814.7 619.6 L 807.1 629.8 L 801.3 639.9 L 793.1 645.4 L 781.8 636.5 L 775.9 646.2 L 768.7 651.8 L 762.2 659 L 758.1 673.5 L 754.5 700.2 L 753.1 704.6 L 750.2 710.6 L 747.7 718.1 L 747.1 726.5 L 739 718.4 L 741.1 716.4 L 742.9 710.2 L 744.2 697.5 L 749.5 676.5 L 752.2 647.9 L 756.8 638.4 L 764.1 631.6 L 774 624.3 L 785.7 612.1 L 791.4 611.6 L 799.9 615.1 L 807 616.1 L 812.5 610.9 L 816.9 599.2 L 818 586.7 L 813.2 579.1 L 806.9 584.7 L 801.7 587.7 L 797.3 587.2 L 797.6 583.4 L 803.3 567.2 L 810.2 567.4 L 818.3 569.4 L 825.3 575.3 L 825.3 575.3 Z  M 680.3 562.8 L 676.4 562.8 L 673.5 557 L 668.5 542.8 L 661.2 509.7 L 669 516.4 L 674.7 530.9 L 680.3 562.8 L 680.3 562.8 Z  M 628.4 491.7 L 609.9 493.4 L 609.9 490.6 L 610.7 488.7 L 613.8 485.2 L 625.8 479.6 L 658.1 457.4 L 664.7 454.4 L 659.5 473.8 L 646.2 485.7 L 628.4 491.7 L 628.4 491.7 Z  M 540.4 811.7 L 533 819.6 L 521.3 824.1 L 518.3 825.8 L 513 827.6 L 362.1 830.4 L 374.9 825.7 L 376.7 824.7 L 379.1 822.1 L 381.1 818.5 L 381.7 815.5 L 383.7 811.8 L 386.1 809.7 L 387.3 806.7 L 389.3 800.2 L 390 796 L 392.9 788.9 L 393 783.4 L 392.5 776.8 L 387.7 765.4 L 381.3 756.1 L 380.6 753 L 381.3 731.1 L 375.6 612.1 L 374.2 603.9 L 372.1 600.4 L 367.3 602.8 L 363.9 610.3 L 360.5 616.2 L 347.1 621.9 L 340 535.3 L 340.4 524.6 L 347.7 503.6 L 354.2 493.5 L 371 485.6 L 376.8 483.9 L 381.4 481.8 L 384.1 479.1 L 384.4 475.2 L 383.7 472.1 L 380.8 464.3 L 380.5 460.1 L 382.3 445.9 L 382.2 442.5 L 380.4 429.1 L 380.6 423.1 L 384.1 407.3 L 384.3 399.5 L 383.8 395.9 L 381.7 387.9 L 381.4 383.6 L 382 377.5 L 383.2 372.4 L 386.8 362 L 416.9 344.7 L 543.3 311.9 L 610.2 319.3 L 586.6 366 L 590 381.5 L 583.2 431.2 L 569.3 480.6 L 564.7 490.6 L 549.9 508.4 L 543.9 519.3 L 541.4 532.1 L 543.9 546.4 L 550.8 553.7 L 571.1 564.1 L 575.3 573.1 L 580.7 578.1 L 604.6 582.3 L 609.9 587.2 L 603.1 598.8 L 588.4 598.7 L 573.8 596.5 L 567.2 601.9 L 565.7 611.1 L 542.2 690.1 L 536.7 750.7 L 536.1 763.2 L 534.1 786.6 L 538.1 799.2 L 540.4 811.7 L 540.4 811.7 Z  M 722 251.5 L 715.8 252.6 L 714.1 248.9 L 718.2 242.9 L 721.1 241 L 722.9 240.9 L 726.1 239.5 L 727.8 241.2 L 726.6 247.4 L 722 251.5 L 722 251.5 Z  M 738.1 239.3 L 733.4 242.9 L 731.4 242.5 L 729.8 237 L 730.7 234.9 L 733.7 233.3 L 736.7 230.7 L 737.7 227.4 L 739.7 224.3 L 741 226.7 L 741.5 233.1 L 738.1 239.3 L 738.1 239.3 Z  M 792.2 201.9 L 791.2 215.2 L 783.7 222.2 L 779.5 228.9 L 767.9 261.2 L 762.3 272 L 758.4 269.3 L 754.5 267.5 L 753.1 273.8 L 751 278.3 L 747.7 281.5 L 742.9 283.9 L 742.9 287.9 L 747.1 296.5 L 752.4 288.7 L 753.7 285.1 L 754.5 279.8 L 758.1 279.8 L 753.6 305.7 L 742.5 329.5 L 724.7 347 L 700.1 353.7 L 700.1 349.7 L 707.9 349.7 L 728.6 334.7 L 736 324.2 L 739 308.8 L 730 309.3 L 732.4 290.7 L 742.9 253.2 L 744.1 250.6 L 749.5 245.6 L 750.6 240.9 L 751 235.1 L 759.4 203.5 L 765 198.2 L 774 202 L 786.5 193.7 L 792.2 201.9 L 792.2 201.9 Z  M 776.9 174 L 776.6 177.1 L 774.6 183.1 L 769.1 190.1 L 765.9 187.3 L 767.4 177 L 769.7 173.4 L 771.8 173.6 L 771.1 170 L 774.5 170.6 L 776.6 171.6 L 776.9 174 L 776.9 174 Z " fill="rgb(124,50,56)" vector-effect="non-scaling-stroke" stroke-width="2" stroke="rgb(255,255,255)" stroke-linejoin="round" stroke-linecap="round" stroke-miterlimit="4"/><mask id="_mask_nApg587NniHupurV74KX0tDnBFkXwqDS" x="-200%" y="-200%" width="400%" height="400%"><rect x="-200%" y="-200%" width="400%" height="400%" style="fill:white;"/><path d=" M 362.1 830.4 L 360.2 836.2 L 362.3 841.2 L 370.5 854.8 L 378.4 861.6 L 382.3 865.8 L 382.1 870.8 L 379.4 873.5 L 376.3 875.7 L 374.3 878.4 L 368.5 890.5 L 365.1 900 L 361.5 906.8 L 358 911.8 L 351.4 916.7 L 348.6 919.3 L 344.7 926.1 L 327.6 945.1 L 326.6 948 L 327.1 953.1 L 327 956.5 L 325.7 964.7 L 325.5 967.7 L 326.4 975.2 L 324.9 980.7 L 321.5 984.2 L 316.1 986.8 L 312.8 989.9 L 311.8 991.8 L 312.3 994 L 319.8 999.4 L 322 1001.8 L 321.7 1003.7 L 320 1005.2 L 317.7 1005.9 L 307.5 1007.6 L 296.6 1011.4 L 293.5 1013.5 L 290.7 1016.2 L 275 1040.5 L 271.7 1049.4 L 265.6 1060.7 L 262.4 1072.4 L 262.4 1074.9 L 264.3 1082.5 L 254.7 1083 L 250.3 1085.4 L 245.4 1090.1 L 239.3 1097.9 L 237.8 1100.8 L 237.3 1103.3 L 239.8 1113.3 L 240.2 1116.4 L 238.6 1122.6 L 227.1 1134.4 L 217.9 1141.5 L 215.4 1142.6 L 210.8 1143.9 L 206.8 1146 L 191.5 1157.8 L 186.4 1160.9 L 182.9 1161.9 L 180.2 1161.4 L 176.8 1162.1 L 170.4 1165.1 L 164.7 1169.6 L 162.1 1173.4 L 162.8 1180.4 L 160.5 1182.2 L 138 1190.7 L 132.4 1191.4 L 130.6 1190.3 L 126.7 1186.2 L 123.1 1183.3 L 120.4 1182.4 L 118.9 1183.2 L 115.3 1187.5 L 103.6 1198.8 L 99.2 1202 L 95.5 1203.9 L 85.9 1205 L 79.6 1206.9 L 72.1 1207.4 L 52.1 1215.7 L 49.5 1217.4 L 45.2 1223.1 L 44.4 1227.4 L 41.9 1232.3 L 38 1237.1 L 31.9 1244.2 L 25.7 1253.8 L 30.7 1192.5 L 41.1 1025.4 L 50.7 871 L 49.9 701.2 L 67 687 L 90.7 671.2 L 98.7 668.3 L 105 667.9 L 109.5 669.7 L 114.1 670.8 L 180.3 663.3 L 188.2 660.6 L 194.1 656.5 L 197.4 651.6 L 201.6 647 L 205.4 645.6 L 213.9 647.1 L 224.1 647.8 L 237.5 647.2 L 243.4 647.6 L 251.6 646.8 L 266.9 647.5 L 279.8 645.8 L 290 642.1 L 306.8 630.8 L 316.5 627.2 L 323.1 626.1 L 334.7 620.4 L 339 619.3 L 347.1 621.9 L 360.5 616.2 L 363.9 610.3 L 367.3 602.8 L 372.1 600.4 L 374.2 603.9 L 375.6 612.1 L 381.3 731.1 L 380.6 753 L 381.3 756.1 L 387.7 765.4 L 392.5 776.8 L 393 783.4 L 392.9 788.9 L 390 796 L 389.3 800.2 L 387.3 806.7 L 386.1 809.7 L 383.7 811.8 L 381.7 815.5 L 381.1 818.5 L 379.1 822.1 L 376.7 824.7 L 374.9 825.7 L 362.1 830.4 L 362.1 830.4 Z " fill="black" stroke="none"/></mask><path d=" M 362.1 830.4 L 360.2 836.2 L 362.3 841.2 L 370.5 854.8 L 378.4 861.6 L 382.3 865.8 L 382.1 870.8 L 379.4 873.5 L 376.3 875.7 L 374.3 878.4 L 368.5 890.5 L 365.1 900 L 361.5 906.8 L 358 911.8 L 351.4 916.7 L 348.6 919.3 L 344.7 926.1 L 327.6 945.1 L 326.6 948 L 327.1 953.1 L 327 956.5 L 325.7 964.7 L 325.5 967.7 L 326.4 975.2 L 324.9 980.7 L 321.5 984.2 L 316.1 986.8 L 312.8 989.9 L 311.8 991.8 L 312.3 994 L 319.8 999.4 L 322 1001.8 L 321.7 1003.7 L 320 1005.2 L 317.7 1005.9 L 307.5 1007.6 L 296.6 1011.4 L 293.5 1013.5 L 290.7 1016.2 L 275 1040.5 L 271.7 1049.4 L 265.6 1060.7 L 262.4 1072.4 L 262.4 1074.9 L 264.3 1082.5 L 254.7 1083 L 250.3 1085.4 L 245.4 1090.1 L 239.3 1097.9 L 237.8 1100.8 L 237.3 1103.3 L 239.8 1113.3 L 240.2 1116.4 L 238.6 1122.6 L 227.1 1134.4 L 217.9 1141.5 L 215.4 1142.6 L 210.8 1143.9 L 206.8 1146 L 191.5 1157.8 L 186.4 1160.9 L 182.9 1161.9 L 180.2 1161.4 L 176.8 1162.1 L 170.4 1165.1 L 164.7 1169.6 L 162.1 1173.4 L 162.8 1180.4 L 160.5 1182.2 L 138 1190.7 L 132.4 1191.4 L 130.6 1190.3 L 126.7 1186.2 L 123.1 1183.3 L 120.4 1182.4 L 118.9 1183.2 L 115.3 1187.5 L 103.6 1198.8 L 99.2 1202 L 95.5 1203.9 L 85.9 1205 L 79.6 1206.9 L 72.1 1207.4 L 52.1 1215.7 L 49.5 1217.4 L 45.2 1223.1 L 44.4 1227.4 L 41.9 1232.3 L 38 1237.1 L 31.9 1244.2 L 25.7 1253.8 L 30.7 1192.5 L 41.1 1025.4 L 50.7 871 L 49.9 701.2 L 67 687 L 90.7 671.2 L 98.7 668.3 L 105 667.9 L 109.5 669.7 L 114.1 670.8 L 180.3 663.3 L 188.2 660.6 L 194.1 656.5 L 197.4 651.6 L 201.6 647 L 205.4 645.6 L 213.9 647.1 L 224.1 647.8 L 237.5 647.2 L 243.4 647.6 L 251.6 646.8 L 266.9 647.5 L 279.8 645.8 L 290 642.1 L 306.8 630.8 L 316.5 627.2 L 323.1 626.1 L 334.7 620.4 L 339 619.3 L 347.1 621.9 L 360.5 616.2 L 363.9 610.3 L 367.3 602.8 L 372.1 600.4 L 374.2 603.9 L 375.6 612.1 L 381.3 731.1 L 380.6 753 L 381.3 756.1 L 387.7 765.4 L 392.5 776.8 L 393 783.4 L 392.9 788.9 L 390 796 L 389.3 800.2 L 387.3 806.7 L 386.1 809.7 L 383.7 811.8 L 381.7 815.5 L 381.1 818.5 L 379.1 822.1 L 376.7 824.7 L 374.9 825.7 L 362.1 830.4 L 362.1 830.4 Z " fill="rgb(124,50,56)" mask="url(#_mask_nApg587NniHupurV74KX0tDnBFkXwqDS)" vector-effect="non-scaling-stroke" stroke-width="4" stroke="rgb(255,255,255)" stroke-linejoin="round" stroke-linecap="round" stroke-miterlimit="4"/><path d=" M 362.1 830.4 L 360.2 836.2 L 362.3 841.2 L 370.5 854.8 L 378.4 861.6 L 382.3 865.8 L 382.1 870.8 L 379.4 873.5 L 376.3 875.7 L 374.3 878.4 L 368.5 890.5 L 365.1 900 L 361.5 906.8 L 358 911.8 L 351.4 916.7 L 348.6 919.3 L 344.7 926.1 L 327.6 945.1 L 326.6 948 L 327.1 953.1 L 327 956.5 L 325.7 964.7 L 325.5 967.7 L 326.4 975.2 L 324.9 980.7 L 321.5 984.2 L 316.1 986.8 L 312.8 989.9 L 311.8 991.8 L 312.3 994 L 319.8 999.4 L 322 1001.8 L 321.7 1003.7 L 320 1005.2 L 317.7 1005.9 L 307.5 1007.6 L 296.6 1011.4 L 293.5 1013.5 L 290.7 1016.2 L 275 1040.5 L 271.7 1049.4 L 265.6 1060.7 L 262.4 1072.4 L 262.4 1074.9 L 264.3 1082.5 L 254.7 1083 L 250.3 1085.4 L 245.4 1090.1 L 239.3 1097.9 L 237.8 1100.8 L 237.3 1103.3 L 239.8 1113.3 L 240.2 1116.4 L 238.6 1122.6 L 227.1 1134.4 L 217.9 1141.5 L 215.4 1142.6 L 210.8 1143.9 L 206.8 1146 L 191.5 1157.8 L 186.4 1160.9 L 182.9 1161.9 L 180.2 1161.4 L 176.8 1162.1 L 170.4 1165.1 L 164.7 1169.6 L 162.1 1173.4 L 162.8 1180.4 L 160.5 1182.2 L 138 1190.7 L 132.4 1191.4 L 130.6 1190.3 L 126.7 1186.2 L 123.1 1183.3 L 120.4 1182.4 L 118.9 1183.2 L 115.3 1187.5 L 103.6 1198.8 L 99.2 1202 L 95.5 1203.9 L 85.9 1205 L 79.6 1206.9 L 72.1 1207.4 L 52.1 1215.7 L 49.5 1217.4 L 45.2 1223.1 L 44.4 1227.4 L 41.9 1232.3 L 38 1237.1 L 31.9 1244.2 L 25.7 1253.8 L 30.7 1192.5 L 41.1 1025.4 L 50.7 871 L 49.9 701.2 L 67 687 L 90.7 671.2 L 98.7 668.3 L 105 667.9 L 109.5 669.7 L 114.1 670.8 L 180.3 663.3 L 188.2 660.6 L 194.1 656.5 L 197.4 651.6 L 201.6 647 L 205.4 645.6 L 213.9 647.1 L 224.1 647.8 L 237.5 647.2 L 243.4 647.6 L 251.6 646.8 L 266.9 647.5 L 279.8 645.8 L 290 642.1 L 306.8 630.8 L 316.5 627.2 L 323.1 626.1 L 334.7 620.4 L 339 619.3 L 347.1 621.9 L 360.5 616.2 L 363.9 610.3 L 367.3 602.8 L 372.1 600.4 L 374.2 603.9 L 375.6 612.1 L 381.3 731.1 L 380.6 753 L 381.3 756.1 L 387.7 765.4 L 392.5 776.8 L 393 783.4 L 392.9 788.9 L 390 796 L 389.3 800.2 L 387.3 806.7 L 386.1 809.7 L 383.7 811.8 L 381.7 815.5 L 381.1 818.5 L 379.1 822.1 L 376.7 824.7 L 374.9 825.7 L 362.1 830.4 L 362.1 830.4 Z " fill="rgb(124,50,56)"/><mask id="_mask_TBgq3aHcHDAZ8HjX8qh2kNRSlBZr330h" x="-200%" y="-200%" width="400%" height="400%"><rect x="-200%" y="-200%" width="400%" height="400%" style="fill:white;"/><path d=" M 610.2 319.3 L 543.3 311.9 L 465 240.6 L 423.6 183.9 L 397.6 164.6 L 361.3 148.5 L 355.5 147.3 L 356 145.2 L 357 135.7 L 359.1 125.5 L 364.6 115.8 L 382.2 95.4 L 389.3 84.2 L 391.2 77.3 L 393.5 62.1 L 398.6 47.6 L 401.7 29.5 L 404.6 23 L 409 18.5 L 426.6 4.8 L 432.3 5.4 L 437.6 8.4 L 443.5 10 L 448.5 9.3 L 459.9 5.2 L 466 2.1 L 469.9 1 L 472.9 2.1 L 478.3 7.4 L 482.7 10 L 486 9.5 L 489.3 7.6 L 493.7 6.4 L 529 6.1 L 532.2 6.7 L 532.2 8.8 L 542 17.8 L 530.8 32.5 L 486.7 64.5 L 482.6 73.2 L 489.1 82.6 L 497.1 83.1 L 524.4 70.6 L 521.2 79.4 L 515.9 88.6 L 502.9 105.3 L 499.7 110.6 L 501.4 113.3 L 505.8 113 L 510.8 109.4 L 520.4 98.5 L 539.3 84.8 L 548.2 80.6 L 557.6 78.8 L 570.4 80.6 L 586.9 88.7 L 594.4 91.1 L 606.5 89.3 L 623.7 77.3 L 643.4 71.1 L 650.1 70.2 L 653.1 72.5 L 652 80.9 L 648.8 86.5 L 637.5 95.2 L 624.5 100.8 L 622 103.4 L 621.8 109.9 L 625.9 111.3 L 630.9 109.2 L 635.2 102.1 L 639.8 98.8 L 645.6 96.3 L 651.2 95.2 L 653 98.5 L 657.6 169.4 L 653.1 224.4 L 651.2 233.8 L 643.3 248.1 L 641.4 257.5 L 620 312.5 L 610.2 319.3 L 610.2 319.3 Z " fill="black" stroke="none"/></mask><path d=" M 610.2 319.3 L 543.3 311.9 L 465 240.6 L 423.6 183.9 L 397.6 164.6 L 361.3 148.5 L 355.5 147.3 L 356 145.2 L 357 135.7 L 359.1 125.5 L 364.6 115.8 L 382.2 95.4 L 389.3 84.2 L 391.2 77.3 L 393.5 62.1 L 398.6 47.6 L 401.7 29.5 L 404.6 23 L 409 18.5 L 426.6 4.8 L 432.3 5.4 L 437.6 8.4 L 443.5 10 L 448.5 9.3 L 459.9 5.2 L 466 2.1 L 469.9 1 L 472.9 2.1 L 478.3 7.4 L 482.7 10 L 486 9.5 L 489.3 7.6 L 493.7 6.4 L 529 6.1 L 532.2 6.7 L 532.2 8.8 L 542 17.8 L 530.8 32.5 L 486.7 64.5 L 482.6 73.2 L 489.1 82.6 L 497.1 83.1 L 524.4 70.6 L 521.2 79.4 L 515.9 88.6 L 502.9 105.3 L 499.7 110.6 L 501.4 113.3 L 505.8 113 L 510.8 109.4 L 520.4 98.5 L 539.3 84.8 L 548.2 80.6 L 557.6 78.8 L 570.4 80.6 L 586.9 88.7 L 594.4 91.1 L 606.5 89.3 L 623.7 77.3 L 643.4 71.1 L 650.1 70.2 L 653.1 72.5 L 652 80.9 L 648.8 86.5 L 637.5 95.2 L 624.5 100.8 L 622 103.4 L 621.8 109.9 L 625.9 111.3 L 630.9 109.2 L 635.2 102.1 L 639.8 98.8 L 645.6 96.3 L 651.2 95.2 L 653 98.5 L 657.6 169.4 L 653.1 224.4 L 651.2 233.8 L 643.3 248.1 L 641.4 257.5 L 620 312.5 L 610.2 319.3 L 610.2 319.3 Z " fill="rgb(124,50,56)" mask="url(#_mask_TBgq3aHcHDAZ8HjX8qh2kNRSlBZr330h)" vector-effect="non-scaling-stroke" stroke-width="4" stroke="rgb(255,255,255)" stroke-linejoin="round" stroke-linecap="round" stroke-miterlimit="4"/><path d=" M 610.2 319.3 L 543.3 311.9 L 465 240.6 L 423.6 183.9 L 397.6 164.6 L 361.3 148.5 L 355.5 147.3 L 356 145.2 L 357 135.7 L 359.1 125.5 L 364.6 115.8 L 382.2 95.4 L 389.3 84.2 L 391.2 77.3 L 393.5 62.1 L 398.6 47.6 L 401.7 29.5 L 404.6 23 L 409 18.5 L 426.6 4.8 L 432.3 5.4 L 437.6 8.4 L 443.5 10 L 448.5 9.3 L 459.9 5.2 L 466 2.1 L 469.9 1 L 472.9 2.1 L 478.3 7.4 L 482.7 10 L 486 9.5 L 489.3 7.6 L 493.7 6.4 L 529 6.1 L 532.2 6.7 L 532.2 8.8 L 542 17.8 L 530.8 32.5 L 486.7 64.5 L 482.6 73.2 L 489.1 82.6 L 497.1 83.1 L 524.4 70.6 L 521.2 79.4 L 515.9 88.6 L 502.9 105.3 L 499.7 110.6 L 501.4 113.3 L 505.8 113 L 510.8 109.4 L 520.4 98.5 L 539.3 84.8 L 548.2 80.6 L 557.6 78.8 L 570.4 80.6 L 586.9 88.7 L 594.4 91.1 L 606.5 89.3 L 623.7 77.3 L 643.4 71.1 L 650.1 70.2 L 653.1 72.5 L 652 80.9 L 648.8 86.5 L 637.5 95.2 L 624.5 100.8 L 622 103.4 L 621.8 109.9 L 625.9 111.3 L 630.9 109.2 L 635.2 102.1 L 639.8 98.8 L 645.6 96.3 L 651.2 95.2 L 653 98.5 L 657.6 169.4 L 653.1 224.4 L 651.2 233.8 L 643.3 248.1 L 641.4 257.5 L 620 312.5 L 610.2 319.3 L 610.2 319.3 Z " fill="rgb(124,50,56)"/><mask id="_mask_nPgj7zVqRMjVGepEbJJi2tfT5GvV7WGz" x="-200%" y="-200%" width="400%" height="400%"><rect x="-200%" y="-200%" width="400%" height="400%" style="fill:white;"/><path d=" M 543.3 311.9 L 416.9 344.7 L 386.8 362 L 383.2 372.4 L 382 377.5 L 381.4 383.6 L 381.7 387.9 L 383.8 395.9 L 384.3 399.5 L 384.1 407.3 L 380.6 423.1 L 380.4 429.1 L 382.2 442.5 L 382.3 445.9 L 380.5 460.1 L 380.8 464.3 L 383.7 472.1 L 384.4 475.2 L 384.1 479.1 L 381.4 481.8 L 376.8 483.9 L 371 485.6 L 354.2 493.5 L 347.7 503.6 L 340.4 524.6 L 340 535.3 L 347.1 621.9 L 339 619.3 L 334.7 620.4 L 323.1 626.1 L 316.5 627.2 L 306.8 630.8 L 290 642.1 L 279.8 645.8 L 266.9 647.5 L 251.6 646.8 L 243.4 647.6 L 237.5 647.2 L 224.1 647.8 L 213.9 647.1 L 205.4 645.6 L 201.6 647 L 197.4 651.6 L 194.1 656.5 L 188.2 660.6 L 180.3 663.3 L 114.1 670.8 L 109.5 669.7 L 105 667.9 L 98.7 668.3 L 90.7 671.2 L 67 687 L 49.9 701.2 L 44.3 406.5 L 43.8 354.4 L 48 330.6 L 60.2 313.1 L 107.5 295.8 L 119.7 300.1 L 129.1 308.6 L 137.7 318.2 L 147.2 325.6 L 154 326.3 L 160.5 325 L 165.9 326.2 L 173.7 343 L 181 348.7 L 203.9 362.1 L 209 360.6 L 212.4 355.8 L 215 342.6 L 217.5 338.3 L 246.6 316.3 L 251.9 310 L 260.1 286.5 L 262.8 281.1 L 271.2 274 L 279 269.4 L 285.8 264.2 L 291.4 255.4 L 293.2 248.9 L 294.9 235.4 L 296.5 229.4 L 310.6 205.5 L 312.5 198.7 L 310.6 190.4 L 308.5 188.6 L 324.7 176.5 L 341.3 168.5 L 348.1 163.3 L 353.8 154.2 L 355.5 147.3 L 361.3 148.5 L 397.6 164.6 L 423.6 183.9 L 465 240.6 L 543.3 311.9 L 543.3 311.9 Z " fill="black" stroke="none"/></mask><path d=" M 543.3 311.9 L 416.9 344.7 L 386.8 362 L 383.2 372.4 L 382 377.5 L 381.4 383.6 L 381.7 387.9 L 383.8 395.9 L 384.3 399.5 L 384.1 407.3 L 380.6 423.1 L 380.4 429.1 L 382.2 442.5 L 382.3 445.9 L 380.5 460.1 L 380.8 464.3 L 383.7 472.1 L 384.4 475.2 L 384.1 479.1 L 381.4 481.8 L 376.8 483.9 L 371 485.6 L 354.2 493.5 L 347.7 503.6 L 340.4 524.6 L 340 535.3 L 347.1 621.9 L 339 619.3 L 334.7 620.4 L 323.1 626.1 L 316.5 627.2 L 306.8 630.8 L 290 642.1 L 279.8 645.8 L 266.9 647.5 L 251.6 646.8 L 243.4 647.6 L 237.5 647.2 L 224.1 647.8 L 213.9 647.1 L 205.4 645.6 L 201.6 647 L 197.4 651.6 L 194.1 656.5 L 188.2 660.6 L 180.3 663.3 L 114.1 670.8 L 109.5 669.7 L 105 667.9 L 98.7 668.3 L 90.7 671.2 L 67 687 L 49.9 701.2 L 44.3 406.5 L 43.8 354.4 L 48 330.6 L 60.2 313.1 L 107.5 295.8 L 119.7 300.1 L 129.1 308.6 L 137.7 318.2 L 147.2 325.6 L 154 326.3 L 160.5 325 L 165.9 326.2 L 173.7 343 L 181 348.7 L 203.9 362.1 L 209 360.6 L 212.4 355.8 L 215 342.6 L 217.5 338.3 L 246.6 316.3 L 251.9 310 L 260.1 286.5 L 262.8 281.1 L 271.2 274 L 279 269.4 L 285.8 264.2 L 291.4 255.4 L 293.2 248.9 L 294.9 235.4 L 296.5 229.4 L 310.6 205.5 L 312.5 198.7 L 310.6 190.4 L 308.5 188.6 L 324.7 176.5 L 341.3 168.5 L 348.1 163.3 L 353.8 154.2 L 355.5 147.3 L 361.3 148.5 L 397.6 164.6 L 423.6 183.9 L 465 240.6 L 543.3 311.9 L 543.3 311.9 Z " fill="rgb(124,50,56)" mask="url(#_mask_nPgj7zVqRMjVGepEbJJi2tfT5GvV7WGz)" vector-effect="non-scaling-stroke" stroke-width="4" stroke="rgb(255,255,255)" stroke-linejoin="round" stroke-linecap="round" stroke-miterlimit="4"/><path d=" M 543.3 311.9 L 416.9 344.7 L 386.8 362 L 383.2 372.4 L 382 377.5 L 381.4 383.6 L 381.7 387.9 L 383.8 395.9 L 384.3 399.5 L 384.1 407.3 L 380.6 423.1 L 380.4 429.1 L 382.2 442.5 L 382.3 445.9 L 380.5 460.1 L 380.8 464.3 L 383.7 472.1 L 384.4 475.2 L 384.1 479.1 L 381.4 481.8 L 376.8 483.9 L 371 485.6 L 354.2 493.5 L 347.7 503.6 L 340.4 524.6 L 340 535.3 L 347.1 621.9 L 339 619.3 L 334.7 620.4 L 323.1 626.1 L 316.5 627.2 L 306.8 630.8 L 290 642.1 L 279.8 645.8 L 266.9 647.5 L 251.6 646.8 L 243.4 647.6 L 237.5 647.2 L 224.1 647.8 L 213.9 647.1 L 205.4 645.6 L 201.6 647 L 197.4 651.6 L 194.1 656.5 L 188.2 660.6 L 180.3 663.3 L 114.1 670.8 L 109.5 669.7 L 105 667.9 L 98.7 668.3 L 90.7 671.2 L 67 687 L 49.9 701.2 L 44.3 406.5 L 43.8 354.4 L 48 330.6 L 60.2 313.1 L 107.5 295.8 L 119.7 300.1 L 129.1 308.6 L 137.7 318.2 L 147.2 325.6 L 154 326.3 L 160.5 325 L 165.9 326.2 L 173.7 343 L 181 348.7 L 203.9 362.1 L 209 360.6 L 212.4 355.8 L 215 342.6 L 217.5 338.3 L 246.6 316.3 L 251.9 310 L 260.1 286.5 L 262.8 281.1 L 271.2 274 L 279 269.4 L 285.8 264.2 L 291.4 255.4 L 293.2 248.9 L 294.9 235.4 L 296.5 229.4 L 310.6 205.5 L 312.5 198.7 L 310.6 190.4 L 308.5 188.6 L 324.7 176.5 L 341.3 168.5 L 348.1 163.3 L 353.8 154.2 L 355.5 147.3 L 361.3 148.5 L 397.6 164.6 L 423.6 183.9 L 465 240.6 L 543.3 311.9 L 543.3 311.9 Z " fill="rgb(124,50,56)"/><mask id="_mask_ETfZ8MKkPHkFr3CYc80Rxm7uprI9dwK3" x="-200%" y="-200%" width="400%" height="400%"><rect x="-200%" y="-200%" width="400%" height="400%" style="fill:white;"/><path d=" M 483.1 1191.4 L 476.5 1188.7 L 475 1184.2 L 472.6 1183.6 L 466.9 1183.2 L 455.1 1185.1 L 449.4 1184.2 L 443.5 1184 L 441.1 1184.3 L 418.7 1182.9 L 413.5 1183.5 L 390.4 1180.2 L 387 1178.7 L 387.9 1176.2 L 390.2 1172.4 L 391.4 1158.1 L 392.2 1154.5 L 392.3 1150.2 L 391.2 1147.2 L 388.9 1142.7 L 383.4 1133.2 L 379.7 1127.8 L 372.8 1120.1 L 370.3 1116.8 L 370.1 1113.8 L 372.2 1108.4 L 372.3 1103.5 L 370.8 1101 L 369.1 1095.9 L 367.5 1093.2 L 364.6 1090.6 L 344.8 1079.5 L 336.4 1077.6 L 323.5 1076 L 280.8 1077.1 L 264.3 1082.5 L 262.4 1074.9 L 262.4 1072.4 L 265.6 1060.7 L 271.7 1049.4 L 275 1040.5 L 290.7 1016.2 L 293.5 1013.5 L 296.6 1011.4 L 307.5 1007.6 L 317.7 1005.9 L 320 1005.2 L 321.7 1003.7 L 322 1001.8 L 319.8 999.4 L 312.3 994 L 311.8 991.8 L 312.8 989.9 L 316.1 986.8 L 321.5 984.2 L 324.9 980.7 L 326.4 975.2 L 325.5 967.7 L 325.7 964.7 L 327 956.5 L 327.1 953.1 L 326.6 948 L 327.6 945.1 L 344.7 926.1 L 348.6 919.3 L 351.4 916.7 L 358 911.8 L 361.5 906.8 L 365.1 900 L 368.5 890.5 L 374.3 878.4 L 376.3 875.7 L 379.4 873.5 L 382.1 870.8 L 382.3 865.8 L 378.4 861.6 L 370.5 854.8 L 362.3 841.2 L 360.2 836.2 L 362.1 830.4 L 513 827.6 L 518.3 825.8 L 521.3 824.1 L 533 819.6 L 540.4 811.7 L 540.9 817 L 543.9 830.7 L 546.1 838.1 L 551.5 841.2 L 563.6 845.3 L 570.6 854.4 L 575.3 865.9 L 578 878.8 L 579.5 897.7 L 582.7 912.2 L 581.4 919.1 L 577.8 920.6 L 572.8 920.6 L 567.2 922.6 L 561 928.4 L 553.2 937.4 L 546.6 947.7 L 543.9 957.3 L 546.4 968.3 L 557.5 985.8 L 559.7 996.1 L 562.7 997.7 L 564.2 1000.4 L 563.6 1003.9 L 561.5 1004.4 L 554 1003.4 L 551.6 1003.9 L 544.4 1009.7 L 541.5 1013.3 L 540.3 1018.7 L 539.1 1021.6 L 536.3 1024.5 L 533.4 1028.5 L 532.2 1034.7 L 532.8 1041.8 L 535.5 1051.2 L 536.1 1057 L 530.8 1099.2 L 527.3 1105.6 L 522.3 1110.7 L 516.6 1118.3 L 510.1 1142.6 L 507 1150 L 505.1 1160.5 L 508.8 1175.5 L 506.5 1180.9 L 502.4 1186.2 L 498.6 1186.6 L 496.9 1177.3 L 514.7 1109.8 L 524.3 1099.6 L 528 1093.6 L 512.9 1101.4 L 497.6 1140.3 L 485.2 1154.8 L 488.9 1155.4 L 496.9 1159.3 L 493 1161.2 L 490 1162.1 L 486.5 1161.5 L 481.3 1159.3 L 482.5 1164.5 L 483.9 1166.9 L 486.9 1167.6 L 492.9 1167.4 L 492.9 1171.1 L 486.9 1175.1 L 482.6 1181.1 L 481.6 1188.3 L 483.1 1191.4 L 483.1 1191.4 Z " fill="black" stroke="none"/></mask><path d=" M 483.1 1191.4 L 476.5 1188.7 L 475 1184.2 L 472.6 1183.6 L 466.9 1183.2 L 455.1 1185.1 L 449.4 1184.2 L 443.5 1184 L 441.1 1184.3 L 418.7 1182.9 L 413.5 1183.5 L 390.4 1180.2 L 387 1178.7 L 387.9 1176.2 L 390.2 1172.4 L 391.4 1158.1 L 392.2 1154.5 L 392.3 1150.2 L 391.2 1147.2 L 388.9 1142.7 L 383.4 1133.2 L 379.7 1127.8 L 372.8 1120.1 L 370.3 1116.8 L 370.1 1113.8 L 372.2 1108.4 L 372.3 1103.5 L 370.8 1101 L 369.1 1095.9 L 367.5 1093.2 L 364.6 1090.6 L 344.8 1079.5 L 336.4 1077.6 L 323.5 1076 L 280.8 1077.1 L 264.3 1082.5 L 262.4 1074.9 L 262.4 1072.4 L 265.6 1060.7 L 271.7 1049.4 L 275 1040.5 L 290.7 1016.2 L 293.5 1013.5 L 296.6 1011.4 L 307.5 1007.6 L 317.7 1005.9 L 320 1005.2 L 321.7 1003.7 L 322 1001.8 L 319.8 999.4 L 312.3 994 L 311.8 991.8 L 312.8 989.9 L 316.1 986.8 L 321.5 984.2 L 324.9 980.7 L 326.4 975.2 L 325.5 967.7 L 325.7 964.7 L 327 956.5 L 327.1 953.1 L 326.6 948 L 327.6 945.1 L 344.7 926.1 L 348.6 919.3 L 351.4 916.7 L 358 911.8 L 361.5 906.8 L 365.1 900 L 368.5 890.5 L 374.3 878.4 L 376.3 875.7 L 379.4 873.5 L 382.1 870.8 L 382.3 865.8 L 378.4 861.6 L 370.5 854.8 L 362.3 841.2 L 360.2 836.2 L 362.1 830.4 L 513 827.6 L 518.3 825.8 L 521.3 824.1 L 533 819.6 L 540.4 811.7 L 540.9 817 L 543.9 830.7 L 546.1 838.1 L 551.5 841.2 L 563.6 845.3 L 570.6 854.4 L 575.3 865.9 L 578 878.8 L 579.5 897.7 L 582.7 912.2 L 581.4 919.1 L 577.8 920.6 L 572.8 920.6 L 567.2 922.6 L 561 928.4 L 553.2 937.4 L 546.6 947.7 L 543.9 957.3 L 546.4 968.3 L 557.5 985.8 L 559.7 996.1 L 562.7 997.7 L 564.2 1000.4 L 563.6 1003.9 L 561.5 1004.4 L 554 1003.4 L 551.6 1003.9 L 544.4 1009.7 L 541.5 1013.3 L 540.3 1018.7 L 539.1 1021.6 L 536.3 1024.5 L 533.4 1028.5 L 532.2 1034.7 L 532.8 1041.8 L 535.5 1051.2 L 536.1 1057 L 530.8 1099.2 L 527.3 1105.6 L 522.3 1110.7 L 516.6 1118.3 L 510.1 1142.6 L 507 1150 L 505.1 1160.5 L 508.8 1175.5 L 506.5 1180.9 L 502.4 1186.2 L 498.6 1186.6 L 496.9 1177.3 L 514.7 1109.8 L 524.3 1099.6 L 528 1093.6 L 512.9 1101.4 L 497.6 1140.3 L 485.2 1154.8 L 488.9 1155.4 L 496.9 1159.3 L 493 1161.2 L 490 1162.1 L 486.5 1161.5 L 481.3 1159.3 L 482.5 1164.5 L 483.9 1166.9 L 486.9 1167.6 L 492.9 1167.4 L 492.9 1171.1 L 486.9 1175.1 L 482.6 1181.1 L 481.6 1188.3 L 483.1 1191.4 L 483.1 1191.4 Z " fill="rgb(124,50,56)" mask="url(#_mask_ETfZ8MKkPHkFr3CYc80Rxm7uprI9dwK3)" vector-effect="non-scaling-stroke" stroke-width="4" stroke="rgb(255,255,255)" stroke-linejoin="round" stroke-linecap="round" stroke-miterlimit="4"/><path d=" M 483.1 1191.4 L 476.5 1188.7 L 475 1184.2 L 472.6 1183.6 L 466.9 1183.2 L 455.1 1185.1 L 449.4 1184.2 L 443.5 1184 L 441.1 1184.3 L 418.7 1182.9 L 413.5 1183.5 L 390.4 1180.2 L 387 1178.7 L 387.9 1176.2 L 390.2 1172.4 L 391.4 1158.1 L 392.2 1154.5 L 392.3 1150.2 L 391.2 1147.2 L 388.9 1142.7 L 383.4 1133.2 L 379.7 1127.8 L 372.8 1120.1 L 370.3 1116.8 L 370.1 1113.8 L 372.2 1108.4 L 372.3 1103.5 L 370.8 1101 L 369.1 1095.9 L 367.5 1093.2 L 364.6 1090.6 L 344.8 1079.5 L 336.4 1077.6 L 323.5 1076 L 280.8 1077.1 L 264.3 1082.5 L 262.4 1074.9 L 262.4 1072.4 L 265.6 1060.7 L 271.7 1049.4 L 275 1040.5 L 290.7 1016.2 L 293.5 1013.5 L 296.6 1011.4 L 307.5 1007.6 L 317.7 1005.9 L 320 1005.2 L 321.7 1003.7 L 322 1001.8 L 319.8 999.4 L 312.3 994 L 311.8 991.8 L 312.8 989.9 L 316.1 986.8 L 321.5 984.2 L 324.9 980.7 L 326.4 975.2 L 325.5 967.7 L 325.7 964.7 L 327 956.5 L 327.1 953.1 L 326.6 948 L 327.6 945.1 L 344.7 926.1 L 348.6 919.3 L 351.4 916.7 L 358 911.8 L 361.5 906.8 L 365.1 900 L 368.5 890.5 L 374.3 878.4 L 376.3 875.7 L 379.4 873.5 L 382.1 870.8 L 382.3 865.8 L 378.4 861.6 L 370.5 854.8 L 362.3 841.2 L 360.2 836.2 L 362.1 830.4 L 513 827.6 L 518.3 825.8 L 521.3 824.1 L 533 819.6 L 540.4 811.7 L 540.9 817 L 543.9 830.7 L 546.1 838.1 L 551.5 841.2 L 563.6 845.3 L 570.6 854.4 L 575.3 865.9 L 578 878.8 L 579.5 897.7 L 582.7 912.2 L 581.4 919.1 L 577.8 920.6 L 572.8 920.6 L 567.2 922.6 L 561 928.4 L 553.2 937.4 L 546.6 947.7 L 543.9 957.3 L 546.4 968.3 L 557.5 985.8 L 559.7 996.1 L 562.7 997.7 L 564.2 1000.4 L 563.6 1003.9 L 561.5 1004.4 L 554 1003.4 L 551.6 1003.9 L 544.4 1009.7 L 541.5 1013.3 L 540.3 1018.7 L 539.1 1021.6 L 536.3 1024.5 L 533.4 1028.5 L 532.2 1034.7 L 532.8 1041.8 L 535.5 1051.2 L 536.1 1057 L 530.8 1099.2 L 527.3 1105.6 L 522.3 1110.7 L 516.6 1118.3 L 510.1 1142.6 L 507 1150 L 505.1 1160.5 L 508.8 1175.5 L 506.5 1180.9 L 502.4 1186.2 L 498.6 1186.6 L 496.9 1177.3 L 514.7 1109.8 L 524.3 1099.6 L 528 1093.6 L 512.9 1101.4 L 497.6 1140.3 L 485.2 1154.8 L 488.9 1155.4 L 496.9 1159.3 L 493 1161.2 L 490 1162.1 L 486.5 1161.5 L 481.3 1159.3 L 482.5 1164.5 L 483.9 1166.9 L 486.9 1167.6 L 492.9 1167.4 L 492.9 1171.1 L 486.9 1175.1 L 482.6 1181.1 L 481.6 1188.3 L 483.1 1191.4 L 483.1 1191.4 Z " fill="rgb(124,50,56)"/><mask id="_mask_JODspq9Ndm7MyGHuvkjFdkwhY9JbncvY" x="-200%" y="-200%" width="400%" height="400%"><rect x="-200%" y="-200%" width="400%" height="400%" style="fill:white;"/><path d=" M 483.1 1192.4 L 485.2 1196.8 L 474.5 1204.8 L 462.8 1228.3 L 452.1 1233.3 L 451 1236.5 L 450 1250.6 L 450.2 1253.5 L 446.9 1255.5 L 443.9 1255.6 L 442 1254.6 L 438.4 1256 L 434.3 1261.6 L 427 1279.4 L 424.7 1282.3 L 420.3 1284.8 L 405.3 1304.6 L 403.6 1307.7 L 401.2 1315.5 L 399.2 1320.1 L 400 1325.2 L 398 1327.2 L 393.4 1326.5 L 389.3 1328.3 L 382.4 1329.8 L 379.8 1331.3 L 378.6 1333.6 L 375.9 1343.1 L 375.9 1318.4 L 372 1318.4 L 368.1 1331.3 L 360.1 1333.2 L 352.3 1328.2 L 348.7 1320.6 L 346.5 1317.2 L 341.7 1316.8 L 334.9 1318.4 L 334.2 1320.5 L 334.5 1330.9 L 332.8 1334.9 L 328.7 1336.3 L 309.5 1339 L 306.2 1341.2 L 303.5 1344 L 299.4 1346.5 L 291.8 1347.5 L 283.7 1351.2 L 281.4 1360.5 L 282.6 1383.6 L 280.5 1395.9 L 275.1 1404.9 L 267.1 1410.4 L 257.2 1412.3 L 254.3 1413.8 L 250.9 1417.6 L 248.1 1422.2 L 245.6 1432.5 L 242.1 1435.5 L 237.2 1437.4 L 231.7 1440.6 L 225.4 1446 L 222.6 1449.1 L 220 1452.7 L 218.7 1459.3 L 219.1 1465.9 L 217.6 1471 L 202.7 1475.3 L 192.9 1481.3 L 183.3 1489.2 L 176.9 1497.3 L 174.9 1512 L 186.8 1536.7 L 184.7 1550.5 L 163.1 1559 L 112.7 1545.9 L 94.5 1546.1 L 78.2 1548.8 L 34.6 1546.8 L 24.2 1551.1 L 19 1551.4 L 12.4 1553.7 L 7 1556.4 L 5.7 1558.3 L 1 1550.6 L 2.4 1514.4 L 16.9 1377.4 L 25.7 1254.8 L 31.9 1245.2 L 38 1238.1 L 41.9 1233.3 L 44.4 1228.4 L 45.2 1224.1 L 49.5 1218.4 L 52.1 1216.7 L 72.1 1208.4 L 79.6 1207.9 L 85.9 1206 L 95.5 1204.9 L 99.2 1203 L 103.6 1199.8 L 115.3 1188.5 L 118.9 1184.2 L 120.4 1183.4 L 123.1 1184.3 L 126.7 1187.2 L 130.6 1191.3 L 132.4 1192.4 L 138 1191.7 L 160.5 1183.2 L 162.8 1181.4 L 162.1 1174.4 L 164.7 1170.6 L 170.4 1166.1 L 176.8 1163.1 L 180.2 1162.4 L 182.9 1162.9 L 186.4 1161.9 L 191.5 1158.8 L 206.8 1147 L 210.8 1144.9 L 215.4 1143.6 L 217.9 1142.5 L 227.1 1135.4 L 238.6 1123.6 L 240.2 1117.4 L 239.8 1114.3 L 237.3 1104.3 L 237.8 1101.8 L 239.3 1098.9 L 245.4 1091.1 L 250.3 1086.4 L 254.7 1084 L 264.3 1083.5 L 280.8 1078.1 L 323.5 1077 L 336.4 1078.6 L 344.8 1080.5 L 364.6 1091.6 L 367.5 1094.2 L 369.1 1096.9 L 370.8 1102 L 372.3 1104.5 L 372.2 1109.4 L 370.1 1114.8 L 370.3 1117.8 L 372.8 1121.1 L 379.7 1128.8 L 383.4 1134.2 L 388.9 1143.7 L 391.2 1148.2 L 392.3 1151.2 L 392.2 1155.5 L 391.4 1159.1 L 390.2 1173.4 L 387.9 1177.2 L 387 1179.7 L 390.4 1181.2 L 413.5 1184.5 L 418.7 1183.9 L 441.1 1185.3 L 443.5 1185 L 449.4 1185.2 L 455.1 1186.1 L 466.9 1184.2 L 472.6 1184.6 L 475 1185.2 L 476.5 1189.7 L 483.1 1192.4 L 483.1 1192.4 Z " fill="black" stroke="none"/></mask><path d=" M 483.1 1192.4 L 485.2 1196.8 L 474.5 1204.8 L 462.8 1228.3 L 452.1 1233.3 L 451 1236.5 L 450 1250.6 L 450.2 1253.5 L 446.9 1255.5 L 443.9 1255.6 L 442 1254.6 L 438.4 1256 L 434.3 1261.6 L 427 1279.4 L 424.7 1282.3 L 420.3 1284.8 L 405.3 1304.6 L 403.6 1307.7 L 401.2 1315.5 L 399.2 1320.1 L 400 1325.2 L 398 1327.2 L 393.4 1326.5 L 389.3 1328.3 L 382.4 1329.8 L 379.8 1331.3 L 378.6 1333.6 L 375.9 1343.1 L 375.9 1318.4 L 372 1318.4 L 368.1 1331.3 L 360.1 1333.2 L 352.3 1328.2 L 348.7 1320.6 L 346.5 1317.2 L 341.7 1316.8 L 334.9 1318.4 L 334.2 1320.5 L 334.5 1330.9 L 332.8 1334.9 L 328.7 1336.3 L 309.5 1339 L 306.2 1341.2 L 303.5 1344 L 299.4 1346.5 L 291.8 1347.5 L 283.7 1351.2 L 281.4 1360.5 L 282.6 1383.6 L 280.5 1395.9 L 275.1 1404.9 L 267.1 1410.4 L 257.2 1412.3 L 254.3 1413.8 L 250.9 1417.6 L 248.1 1422.2 L 245.6 1432.5 L 242.1 1435.5 L 237.2 1437.4 L 231.7 1440.6 L 225.4 1446 L 222.6 1449.1 L 220 1452.7 L 218.7 1459.3 L 219.1 1465.9 L 217.6 1471 L 202.7 1475.3 L 192.9 1481.3 L 183.3 1489.2 L 176.9 1497.3 L 174.9 1512 L 186.8 1536.7 L 184.7 1550.5 L 163.1 1559 L 112.7 1545.9 L 94.5 1546.1 L 78.2 1548.8 L 34.6 1546.8 L 24.2 1551.1 L 19 1551.4 L 12.4 1553.7 L 7 1556.4 L 5.7 1558.3 L 1 1550.6 L 2.4 1514.4 L 16.9 1377.4 L 25.7 1254.8 L 31.9 1245.2 L 38 1238.1 L 41.9 1233.3 L 44.4 1228.4 L 45.2 1224.1 L 49.5 1218.4 L 52.1 1216.7 L 72.1 1208.4 L 79.6 1207.9 L 85.9 1206 L 95.5 1204.9 L 99.2 1203 L 103.6 1199.8 L 115.3 1188.5 L 118.9 1184.2 L 120.4 1183.4 L 123.1 1184.3 L 126.7 1187.2 L 130.6 1191.3 L 132.4 1192.4 L 138 1191.7 L 160.5 1183.2 L 162.8 1181.4 L 162.1 1174.4 L 164.7 1170.6 L 170.4 1166.1 L 176.8 1163.1 L 180.2 1162.4 L 182.9 1162.9 L 186.4 1161.9 L 191.5 1158.8 L 206.8 1147 L 210.8 1144.9 L 215.4 1143.6 L 217.9 1142.5 L 227.1 1135.4 L 238.6 1123.6 L 240.2 1117.4 L 239.8 1114.3 L 237.3 1104.3 L 237.8 1101.8 L 239.3 1098.9 L 245.4 1091.1 L 250.3 1086.4 L 254.7 1084 L 264.3 1083.5 L 280.8 1078.1 L 323.5 1077 L 336.4 1078.6 L 344.8 1080.5 L 364.6 1091.6 L 367.5 1094.2 L 369.1 1096.9 L 370.8 1102 L 372.3 1104.5 L 372.2 1109.4 L 370.1 1114.8 L 370.3 1117.8 L 372.8 1121.1 L 379.7 1128.8 L 383.4 1134.2 L 388.9 1143.7 L 391.2 1148.2 L 392.3 1151.2 L 392.2 1155.5 L 391.4 1159.1 L 390.2 1173.4 L 387.9 1177.2 L 387 1179.7 L 390.4 1181.2 L 413.5 1184.5 L 418.7 1183.9 L 441.1 1185.3 L 443.5 1185 L 449.4 1185.2 L 455.1 1186.1 L 466.9 1184.2 L 472.6 1184.6 L 475 1185.2 L 476.5 1189.7 L 483.1 1192.4 L 483.1 1192.4 Z " fill="rgb(124,50,56)" mask="url(#_mask_JODspq9Ndm7MyGHuvkjFdkwhY9JbncvY)" vector-effect="non-scaling-stroke" stroke-width="4" stroke="rgb(255,255,255)" stroke-linejoin="round" stroke-linecap="round" stroke-miterlimit="4"/><path d=" M 483.1 1192.4 L 485.2 1196.8 L 474.5 1204.8 L 462.8 1228.3 L 452.1 1233.3 L 451 1236.5 L 450 1250.6 L 450.2 1253.5 L 446.9 1255.5 L 443.9 1255.6 L 442 1254.6 L 438.4 1256 L 434.3 1261.6 L 427 1279.4 L 424.7 1282.3 L 420.3 1284.8 L 405.3 1304.6 L 403.6 1307.7 L 401.2 1315.5 L 399.2 1320.1 L 400 1325.2 L 398 1327.2 L 393.4 1326.5 L 389.3 1328.3 L 382.4 1329.8 L 379.8 1331.3 L 378.6 1333.6 L 375.9 1343.1 L 375.9 1318.4 L 372 1318.4 L 368.1 1331.3 L 360.1 1333.2 L 352.3 1328.2 L 348.7 1320.6 L 346.5 1317.2 L 341.7 1316.8 L 334.9 1318.4 L 334.2 1320.5 L 334.5 1330.9 L 332.8 1334.9 L 328.7 1336.3 L 309.5 1339 L 306.2 1341.2 L 303.5 1344 L 299.4 1346.5 L 291.8 1347.5 L 283.7 1351.2 L 281.4 1360.5 L 282.6 1383.6 L 280.5 1395.9 L 275.1 1404.9 L 267.1 1410.4 L 257.2 1412.3 L 254.3 1413.8 L 250.9 1417.6 L 248.1 1422.2 L 245.6 1432.5 L 242.1 1435.5 L 237.2 1437.4 L 231.7 1440.6 L 225.4 1446 L 222.6 1449.1 L 220 1452.7 L 218.7 1459.3 L 219.1 1465.9 L 217.6 1471 L 202.7 1475.3 L 192.9 1481.3 L 183.3 1489.2 L 176.9 1497.3 L 174.9 1512 L 186.8 1536.7 L 184.7 1550.5 L 163.1 1559 L 112.7 1545.9 L 94.5 1546.1 L 78.2 1548.8 L 34.6 1546.8 L 24.2 1551.1 L 19 1551.4 L 12.4 1553.7 L 7 1556.4 L 5.7 1558.3 L 1 1550.6 L 2.4 1514.4 L 16.9 1377.4 L 25.7 1254.8 L 31.9 1245.2 L 38 1238.1 L 41.9 1233.3 L 44.4 1228.4 L 45.2 1224.1 L 49.5 1218.4 L 52.1 1216.7 L 72.1 1208.4 L 79.6 1207.9 L 85.9 1206 L 95.5 1204.9 L 99.2 1203 L 103.6 1199.8 L 115.3 1188.5 L 118.9 1184.2 L 120.4 1183.4 L 123.1 1184.3 L 126.7 1187.2 L 130.6 1191.3 L 132.4 1192.4 L 138 1191.7 L 160.5 1183.2 L 162.8 1181.4 L 162.1 1174.4 L 164.7 1170.6 L 170.4 1166.1 L 176.8 1163.1 L 180.2 1162.4 L 182.9 1162.9 L 186.4 1161.9 L 191.5 1158.8 L 206.8 1147 L 210.8 1144.9 L 215.4 1143.6 L 217.9 1142.5 L 227.1 1135.4 L 238.6 1123.6 L 240.2 1117.4 L 239.8 1114.3 L 237.3 1104.3 L 237.8 1101.8 L 239.3 1098.9 L 245.4 1091.1 L 250.3 1086.4 L 254.7 1084 L 264.3 1083.5 L 280.8 1078.1 L 323.5 1077 L 336.4 1078.6 L 344.8 1080.5 L 364.6 1091.6 L 367.5 1094.2 L 369.1 1096.9 L 370.8 1102 L 372.3 1104.5 L 372.2 1109.4 L 370.1 1114.8 L 370.3 1117.8 L 372.8 1121.1 L 379.7 1128.8 L 383.4 1134.2 L 388.9 1143.7 L 391.2 1148.2 L 392.3 1151.2 L 392.2 1155.5 L 391.4 1159.1 L 390.2 1173.4 L 387.9 1177.2 L 387 1179.7 L 390.4 1181.2 L 413.5 1184.5 L 418.7 1183.9 L 441.1 1185.3 L 443.5 1185 L 449.4 1185.2 L 455.1 1186.1 L 466.9 1184.2 L 472.6 1184.6 L 475 1185.2 L 476.5 1189.7 L 483.1 1192.4 L 483.1 1192.4 Z " fill="rgb(124,50,56)"/><path d=" M 343 1063.2 C 343 1063.2 343 1063.2 343 1063.2 C 343 1063.2 343 1063.2 343 1063.2 C 343 1063.2 343 1063.2 343 1063.2 C 343 1063.2 343 1063.2 343 1063.2 Z " fill="rgb(124,50,56)" vector-effect="non-scaling-stroke" stroke-width="2" stroke="rgb(255,255,255)" stroke-linejoin="round" stroke-linecap="round" stroke-miterlimit="4"/><path d=" M 231.8 1181.5 C 231.8 1181.5 231.8 1181.5 231.8 1181.5 C 231.8 1181.5 231.8 1181.5 231.8 1181.5 C 231.8 1181.5 231.8 1181.5 231.8 1181.5 C 231.8 1181.5 231.8 1181.5 231.8 1181.5 Z " fill="rgb(124,50,56)" vector-effect="non-scaling-stroke" stroke-width="2" stroke="rgb(255,255,255)" stroke-linejoin="round" stroke-linecap="round" stroke-miterlimit="4"/><path d=" M 495.1 389.6 C 495.1 389.6 495.1 389.6 495.1 389.6 C 495.1 389.6 495.1 389.6 495.1 389.6 C 495.1 389.6 495.1 389.6 495.1 389.6 C 495.1 389.6 495.1 389.6 495.1 389.6 Z " fill="rgb(124,50,56)" vector-effect="non-scaling-stroke" stroke-width="2" stroke="rgb(255,255,255)" stroke-linejoin="round" stroke-linecap="round" stroke-miterlimit="4"/></g></svg>